<svg xmlns="http://www.w3.org/2000/svg" width="666.667" height="666.667" preserveAspectRatio="xMidYMid meet" version="1.0" viewBox="0 0 500 100"><g fill="#6c63ff" stroke="none"><path d="M2663 2849 c-68 -26 -136 -94 -157 -156 -22 -63 -20 -167 4 -299 38 -200 27 -275 -48 -332 -31 -24 -45 -27 -107 -27 -62 0 -77 4 -112 28 -47 33 -83 92 -83 138 0 19 11 57 25 84 30 61 31 81 5 122 -13 22 -32 36 -61 44 -61 19 -104 -7 -144 -86 -39 -77 -41 -179 -6 -268 48 -123 191 -232 334 -257 174 -31 356 58 424 206 38 84 41 172 9 326 -47 229 -32 298 63 298 67 0 91 -28 100 -115 9 -84 39 -120 102 -120 77 0 122 87 99 192 -40 181 -265 292 -447 222z" transform="translate(0.000000,500.000000) scale(0.100000,-0.100000)"/></g></svg>